<svg font-family="-apple-system-body, ui-sans-serif, -apple-system, system-ui, &quot;Segoe UI&quot;, Helvetica, &quot;Apple Color Emoji&quot;, Arial, sans-serif, &quot;Segoe UI Emoji&quot;, &quot;Segoe UI Symbol&quot;" font-weight="400" data-d-component="svg" fill="currentColor" style="color:rgb(13, 13, 13)" viewBox="0 0 340 250" width="100%" xmlns="http://www.w3.org/2000/svg"><g stroke="#8493a6" stroke-width="1.8" fill="none"><path d="M170 42 L90 102 M170 42 L250 102 M90 102 L42 180 M90 102 L138 180 M250 102 L202 180 M250 102 L298 180"/></g><circle cx="170" cy="32" r="21" fill="#315eaa" stroke="#315eaa" stroke-width="1.5"/><text x="170" y="37" text-anchor="middle" font-size="14" font-weight="bold" fill="#ffffff">50</text><circle cx="90" cy="102" r="21" fill="#dce8f8" stroke="#7f9ecc" stroke-width="1.5"/><text x="90" y="107" text-anchor="middle" font-size="14" font-weight="bold" fill="#183e70">30</text><circle cx="250" cy="102" r="21" fill="#dce8f8" stroke="#7f9ecc" stroke-width="1.5"/><text x="250" y="107" text-anchor="middle" font-size="14" font-weight="bold" fill="#183e70">70</text><circle cx="42" cy="181" r="21" fill="#247a65" stroke="#247a65" stroke-width="1.5"/><text x="42" y="186" text-anchor="middle" font-size="14" font-weight="bold" fill="#ffffff">20</text><circle cx="138" cy="181" r="21" fill="#247a65" stroke="#247a65" stroke-width="1.5"/><text x="138" y="186" text-anchor="middle" font-size="14" font-weight="bold" fill="#ffffff">40</text><circle cx="202" cy="181" r="21" fill="#247a65" stroke="#247a65" stroke-width="1.5"/><text x="202" y="186" text-anchor="middle" font-size="14" font-weight="bold" fill="#ffffff">60</text><circle cx="298" cy="181" r="21" fill="#247a65" stroke="#247a65" stroke-width="1.5"/><text x="298" y="186" text-anchor="middle" font-size="14" font-weight="bold" fill="#ffffff">80</text><g fill="currentColor" font-size="11" text-anchor="middle"><text x="170" y="8">RAÍZ</text><text x="115" y="68">Izq.</text><text x="226" y="68">Der.</text><text x="51" y="139">Izq.</text><text x="130" y="139">Der.</text><text x="209" y="139">Izq.</text><text x="292" y="139">Der.</text><text x="170" y="226">20, 40, 60 y 80 son hojas</text></g></svg>